<svg width="500" height="500" viewBox="0 0 500 500" fill="none" xmlns="http://www.w3.org/2000/svg">
<g clip-path="url(#clip0_743_523)">
<path d="M382.812 0H117.188C52.4666 0 0 52.4666 0 117.188V382.812C0 447.533 52.4666 500 117.188 500H382.812C447.533 500 500 447.533 500 382.812V117.188C500 52.4666 447.533 0 382.812 0Z" fill="#F4F2ED"/>
<g clip-path="url(#clip1_743_523)">
<path d="M254.698 46.0352C144.366 46.0352 54.982 135.821 54.7812 246.66H54.7429V401.964H54.7812C54.8322 427.101 75.127 447.459 100.178 447.459H254.66C365.014 447.386 454.376 357.613 454.376 246.822C454.376 135.98 364.954 46.1945 254.462 46.1945L254.698 46.0352ZM295.3 128.649C328.855 128.649 360.533 154.445 360.533 190.043C360.533 193.342 360.558 196.641 360.01 200.39C359.085 209.857 350.473 216.665 341.082 215.333C331.708 213.975 325.333 205.037 327.077 195.672C327.236 194.601 327.287 192.922 327.287 190.043C327.287 169.86 310.852 162.079 295.313 162.079C279.774 162.079 265.765 175.202 265.743 190.043C266.004 207.214 265.743 224.236 265.743 241.407L294.59 241.183C317.116 240.721 317.377 274.773 294.851 274.614L265.765 274.824C265.692 288.645 265.867 286.14 265.803 293.101C265.803 293.101 266.039 309.986 265.542 322.787C262.055 360.399 230.18 390.457 191.869 390.457C151.241 390.457 117.785 357.126 117.785 316.252C119.003 274.216 152.398 241.132 194.445 241.518L217.905 241.343V274.713L194.445 274.923H194.333C171.224 275.608 151.413 291.371 151.04 316.224C151.027 321.586 152.074 326.899 154.12 331.855C156.167 336.812 159.174 341.315 162.967 345.106C166.76 348.897 171.265 351.9 176.223 353.944C181.181 355.987 186.494 357.031 191.856 357.014C214.443 357.014 232.523 340.503 232.523 316.275L232.484 189.893C232.497 187.541 232.57 185.673 232.835 183.098C236.644 152.179 264.171 128.623 295.339 128.623L295.3 128.649Z" fill="#66A0D5"/>
</g>
</g>
<defs>
<clipPath id="clip0_743_523">
<rect width="500" height="500" fill="white"/>
</clipPath>
<clipPath id="clip1_743_523">
<rect width="408" height="408" fill="white" transform="translate(46 46)"/>
</clipPath>
</defs>
</svg>
