<svg width="500" height="500" viewBox="0 0 500 500" fill="none" xmlns="http://www.w3.org/2000/svg">
<g clip-path="url(#clip0_745_619)">
<mask id="mask0_745_619" style="mask-type:luminance" maskUnits="userSpaceOnUse" x="0" y="0" width="500" height="500">
<path d="M0 0H500V500H0V0Z" fill="white"/>
</mask>
<g mask="url(#mask0_745_619)">
<path d="M382.812 0H117.188C52.4668 0 0 52.4668 0 117.188V382.812C0 447.533 52.4668 500 117.188 500H382.812C447.533 500 500 447.533 500 382.812V117.188C500 52.4668 447.533 0 382.812 0Z" fill="#F4F2ED"/>
<mask id="mask1_745_619" style="mask-type:luminance" maskUnits="userSpaceOnUse" x="78" y="80" width="342" height="342">
<path d="M78.125 80.0781H419.922V421.875H78.125V80.0781Z" fill="white"/>
</mask>
<g mask="url(#mask1_745_619)">
<path d="M249.023 80.0781C233.811 117.379 224.572 141.811 207.635 178.002C218.02 189.012 230.783 201.783 251.484 216.264C229.229 207.104 214.057 197.934 202.711 188.393C181.031 233.627 147.047 298.035 78.125 421.875C132.281 390.609 174.266 371.324 213.393 363.963C211.719 356.748 210.824 348.906 210.889 340.766L210.93 339.055C211.789 304.348 229.848 277.662 251.234 279.473C272.621 281.285 289.27 310.898 288.41 345.605C288.248 352.143 287.488 358.424 286.199 364.256C324.904 371.83 366.492 391.029 419.922 421.875C410.242 404.046 400.59 386.203 390.967 368.344C376.818 357.379 362.07 343.113 331.969 327.664C352.658 333.039 367.486 339.256 379.033 346.189C287.715 176.172 280.338 153.564 249.023 80.0781Z" fill="#1793D1"/>
</g>
</g>
</g>
<defs>
<clipPath id="clip0_745_619">
<rect width="500" height="500" fill="white"/>
</clipPath>
</defs>
</svg>
