<svg width="500" height="500" viewBox="0 0 500 500" fill="none" xmlns="http://www.w3.org/2000/svg">
<g clip-path="url(#clip0_748_696)">
<path d="M382.812 0H117.188C52.4666 0 0 52.4666 0 117.188V382.812C0 447.533 52.4666 500 117.188 500H382.812C447.533 500 500 447.533 500 382.812V117.188C500 52.4666 447.533 0 382.812 0Z" fill="#F4F2ED"/>
<g clip-path="url(#clip1_748_696)">
<path d="M270.62 135.2C268.826 134.875 260.165 133.423 250 133.423C239.835 133.423 231.174 134.875 229.38 135.2C228.355 135.37 227.945 134.38 228.731 133.782C229.449 133.269 250 117.621 250 117.621L271.252 133.782C272.055 134.38 271.662 135.388 270.62 135.2ZM235.12 236.76C235.12 236.76 234.027 237.153 233.754 238.11C238.059 241.407 241.014 248.94 250 248.94C258.986 248.94 261.958 241.424 266.246 238.093C265.973 237.136 264.88 236.76 264.88 236.76C264.88 236.76 259.242 238.075 250 238.075C240.741 238.075 235.12 236.76 235.12 236.76ZM250 224.084C247.506 224.084 246.959 223.145 245.251 223.145C243.645 223.145 240.485 224.443 239.801 225.639C239.84 226.248 240.094 226.823 240.519 227.262C244.14 227.791 245.798 229.824 250 229.824C254.203 229.824 255.86 227.791 259.498 227.262C259.905 226.813 260.151 226.242 260.199 225.639C259.515 224.443 256.372 223.162 254.749 223.145C253.041 223.145 252.494 224.084 250 224.084ZM454.778 262.863C454.519 267.735 454.086 272.595 453.48 277.435C430.246 281.279 421.961 260.591 398.181 261.633C399.593 266.679 400.749 271.821 401.649 277.06C421.26 277.06 429.153 295.39 450.985 292.691C449.847 298.294 448.468 303.818 446.851 309.262C429.597 310.97 423.533 293.818 403.562 294.297C403.733 297.133 403.818 300.003 403.818 302.907L403.733 307.69L442.512 322.484C440.484 327.977 438.221 333.38 435.73 338.679C424.079 338.047 420.065 323.099 402.332 324.278C401.803 328.089 401.13 331.878 400.316 335.638C415.708 334.562 419.022 348.741 430.041 349.886C427.238 355.007 424.217 360.005 420.987 364.868C414.461 361.366 408.79 350.808 396.387 350.159C397.664 346.22 398.781 342.23 399.735 338.201C388.734 338.201 376.16 333.93 365.637 324.329C369.054 304.854 338.85 285.055 338.85 270.807C338.85 255.33 346.675 246.771 346.675 225.912C346.675 210.418 339.158 193.625 327.815 182.145C325.709 179.991 323.351 178.098 320.793 176.507C331.214 189.388 339.209 204.678 339.209 222.376C339.209 242.022 330.07 252.391 330.07 270.534C330.07 288.659 356.6 304.359 356.6 323.048C356.6 330.394 354.243 337.569 346.487 351.697C358.394 363.587 373.905 370.078 383.899 370.078C387.145 370.078 388.905 369.088 390.066 366.542C391.07 364.338 392.021 362.111 392.919 359.863C403.682 360.273 408.636 370.061 414.598 373.973C411.318 378.381 407.878 382.629 404.28 386.718C400.282 382.293 394.901 374.845 387.025 372.778C385.626 375.515 384.145 378.209 382.584 380.858C389.349 382.703 393.978 389.536 397.566 394.029C393.698 398.041 389.669 401.894 385.488 405.578C382.874 401.495 378.791 396.335 374.213 393.551C372.534 395.825 370.785 398.047 368.968 400.213C372.846 402.861 376.28 407.593 378.518 411.454C373.689 415.338 368.678 419.011 363.485 422.473C360.922 401.631 332.495 387.367 340.166 363.194C337.655 367.465 334.648 372.778 334.648 379.201C334.648 396.694 353.269 410.566 354.772 427.957C350.9 430.257 346.954 432.438 342.933 434.5C342.25 415.383 322.536 394.473 322.536 378.808C322.536 361.298 345.462 343.702 345.462 323.048C345.462 302.377 319 288.044 319 269.902C319 251.759 330.257 241.321 330.257 218.054C330.257 201.022 322.16 183.785 309.655 172.783C307.534 170.868 305.181 169.226 302.651 167.897C314.438 182.042 321.272 194.889 321.272 214.347C321.272 236.213 308.374 248.343 308.374 269.765C308.374 291.188 334.34 303.078 334.34 323.065C334.34 343.018 310.185 359.828 310.185 380.345C310.185 399 331.47 417.621 331.795 439.744C327.122 441.777 322.376 443.634 317.565 445.313C320.281 422.951 296.296 399.889 296.296 381.644C296.296 361.708 321.357 344.556 321.357 323.048C321.357 301.54 295.886 291.529 295.886 269.44C295.886 247.352 311.517 235.154 311.517 210.759C311.466 201.731 309.36 192.834 305.358 184.741C301.356 176.649 295.564 169.574 288.42 164.053L287.549 163.404C286.251 162.448 285.192 163.592 286.114 164.737C295.818 176.866 301.011 189.115 301.011 207.274C301.011 229.568 283.039 247.693 283.039 269.321C283.039 294.826 307.161 302.121 307.161 323.048C307.161 343.975 281.297 360.717 281.297 382.925C281.297 403.528 305.777 426.402 301.575 450.182C296.64 451.461 291.66 452.555 286.644 453.462C291.239 423.857 267.22 402.588 267.22 383.215C267.22 362.237 294.007 343.548 294.007 323.048C294.007 303.727 274.788 297.406 272.26 277.623C271.918 274.924 269.748 272.925 266.759 273.421C262.847 274.138 257.841 276.701 249.983 276.701C242.125 276.701 237.119 274.138 233.207 273.421C230.235 272.925 228.065 274.924 227.723 277.623C225.195 297.406 205.959 303.71 205.959 323.065C205.959 343.548 232.746 362.237 232.746 383.198C232.746 402.588 208.744 423.857 213.322 453.462C208.306 452.555 203.326 451.461 198.391 450.182C194.189 426.402 218.669 403.545 218.669 382.925C218.669 360.717 192.805 343.975 192.805 323.048C192.805 302.121 216.927 294.826 216.927 269.321C216.927 247.693 198.972 229.585 198.972 207.257C198.972 189.115 204.148 176.849 213.869 164.72C214.774 163.592 213.715 162.448 212.417 163.404L211.563 164.053C204.427 169.572 198.64 176.642 194.642 184.728C190.643 192.814 188.537 201.704 188.483 210.725C188.483 235.12 204.114 247.335 204.114 269.423C204.114 291.495 178.626 301.506 178.626 323.031C178.626 344.522 203.687 361.673 203.687 381.627C203.687 399.872 179.719 422.934 182.435 445.296C177.624 443.617 172.878 441.76 168.205 439.727C168.53 417.587 189.815 398.966 189.815 380.311C189.815 359.811 165.66 342.984 165.66 323.031C165.66 303.078 191.609 291.153 191.609 269.731C191.609 248.325 178.728 236.179 178.728 214.313C178.728 194.838 185.562 182.025 197.349 167.88C194.82 169.204 192.467 170.84 190.345 172.749C183.972 178.464 178.852 185.437 175.306 193.228C171.76 201.019 169.866 209.46 169.742 218.02C169.742 241.287 181 251.725 181 269.868C181 288.01 154.538 302.326 154.538 323.014C154.538 343.685 177.464 361.28 177.464 378.774C177.464 394.456 157.733 415.366 157.067 434.465C153.05 432.415 149.101 430.233 145.228 427.923C146.714 410.549 165.352 396.66 165.352 379.167C165.352 372.76 162.345 367.43 159.834 363.177C167.487 387.333 139.061 401.614 136.498 422.439C131.323 418.996 126.306 415.319 121.465 411.42C123.703 407.576 127.137 402.827 131.032 400.196C129.209 398.025 127.454 395.797 125.77 393.517C121.192 396.301 117.109 401.478 114.495 405.543C110.314 401.865 106.285 398.018 102.417 394.012C106.005 389.502 110.651 382.669 117.416 380.824C115.849 378.176 114.363 375.481 112.957 372.743C105.099 374.828 99.7008 382.276 95.7033 386.7C92.1011 382.591 88.6646 378.34 85.4021 373.956C91.3812 370.027 96.3012 360.238 107.081 359.828C107.981 362.072 108.932 364.293 109.934 366.491C111.095 369.053 112.838 370.044 116.084 370.044C126.095 370.044 141.589 363.553 153.496 351.663C145.757 337.552 143.417 330.377 143.417 323.014C143.417 304.325 169.93 288.642 169.93 270.5C169.93 252.357 160.791 242.005 160.791 222.359C160.791 204.643 168.786 189.371 179.207 176.473C176.643 178.063 174.28 179.956 172.168 182.11C160.842 193.625 153.308 210.418 153.308 225.895C153.308 246.754 161.15 255.33 161.15 270.807C161.15 285.055 130.946 304.854 134.363 324.312C123.822 333.913 111.249 338.201 100.247 338.201C101.196 342.23 102.308 346.22 103.579 350.159C91.1933 350.808 85.5387 361.366 78.9787 364.851C75.7492 359.994 72.7284 355.001 69.9246 349.886C80.9604 348.724 84.2746 334.562 99.6837 335.638C98.8699 331.878 98.1975 328.089 97.6679 324.278C79.9354 323.082 75.9037 338.047 64.2529 338.679C61.7677 333.38 59.5107 327.977 57.4879 322.484L96.25 307.673L96.1646 302.89C96.1646 299.985 96.2443 297.11 96.4037 294.263C76.4504 293.801 70.3687 310.936 53.1146 309.245C51.5127 303.781 50.1391 298.252 48.9975 292.674C70.7958 295.356 78.7225 277.025 98.3342 277.043C99.2186 271.839 100.37 266.684 101.785 261.599C78.005 260.574 69.7025 281.245 46.5033 277.401C45.8977 272.567 45.4647 267.712 45.205 262.846C72.1967 265.853 82.2929 243.679 106.876 246.395C109.157 240.54 111.84 234.849 114.905 229.363C84.1037 223.948 73.6487 249.709 44.9829 245.763C48.0921 135.2 138.685 46.5371 250 46.5371C361.315 46.5371 451.908 135.2 455 245.78C426.317 249.743 415.879 223.982 385.078 229.38C388.119 234.858 390.795 240.535 393.107 246.412C417.673 243.696 427.786 265.887 454.778 262.863ZM161.85 176.849C146.748 170.682 128.469 172.1 112.855 182.145C110.429 167.607 102.554 154.692 91.33 146.919C89.7754 145.843 88.1696 146.85 88.3062 148.661C90.6808 179.343 72.7262 205.993 50.6717 229.431C73.4096 236.265 92.765 206.984 122.251 217.2C132.843 201.417 146.27 187.736 161.85 176.849ZM250 158.279C230.969 158.279 215.013 169.042 210.845 182.965C210.503 184.024 210.948 184.724 212.178 184.16C215.594 182.623 219.506 181.888 223.743 181.888C231.499 181.888 238.349 184.741 242.398 189.695C244.175 195.606 244.328 204.165 242.313 209.034C239.118 208.316 237.956 205.856 234.83 205.856C231.721 205.856 229.295 208.043 223.999 208.043C218.703 208.043 218.088 205.549 214.603 205.549C210.503 205.549 209.752 209.768 209.752 214.518C209.752 235.735 229.261 264.913 250 264.913C270.739 264.913 290.214 235.735 290.214 214.518C290.214 209.751 289.24 205.685 284.97 205.122C282.448 207.189 279.24 208.232 275.984 208.043C270.688 208.043 269.236 205.856 266.11 205.856C262.351 205.856 262.727 213.8 258.251 214.227C255.262 207.069 255.125 197.878 257.602 189.695C261.651 184.741 268.484 181.888 276.257 181.888C280.494 181.888 284.406 182.64 287.805 184.16C289.035 184.724 289.463 184.024 289.155 182.965C284.987 169.059 269.031 158.279 250 158.279ZM280.306 188.722C275.745 188.722 270.398 190.123 267.032 193.864C266.652 195.027 266.701 196.287 267.169 197.417C275.454 194.581 282.749 194.462 286.285 198.408C288.164 196.7 288.762 195.162 288.762 193.385C288.762 190.635 285.96 188.722 280.306 188.722ZM213.715 198.408C217.713 194.41 226.135 194.581 234.864 197.81C235.257 193.471 227.467 188.705 219.694 188.705C214.04 188.705 211.238 190.618 211.238 193.385C211.238 195.162 211.836 196.717 213.715 198.408ZM344.915 126.607C329.882 127.683 316.847 132.842 306.273 141.435C310.593 129.21 316.442 117.581 323.68 106.824C304.547 108.857 288.54 115.861 276.872 127.82L267.715 103.852L288.01 85.9484L260.848 84.0179L250 58.7517L239.152 84.035L211.99 85.9484L232.268 103.869L223.145 127.82C211.46 115.861 195.47 108.857 176.337 106.824C183.564 117.583 189.401 129.212 193.71 141.435C183.153 132.842 170.101 127.683 155.068 126.607C164.088 138.206 172.083 150.558 177.994 163.848C178.677 165.352 180.112 165.847 181.65 165.061C202.882 154.511 226.274 149.037 249.983 149.071C274.549 149.071 297.731 154.845 318.333 165.061C319.888 165.847 321.323 165.352 321.989 163.865C327.917 150.558 335.912 138.206 344.932 126.624L344.915 126.607ZM377.749 217.217C407.235 207.001 426.607 236.265 449.328 229.448C427.274 206.01 409.336 179.36 411.711 148.661C411.847 146.868 410.225 145.843 408.687 146.919C397.463 154.709 389.571 167.624 387.162 182.145C371.548 172.117 353.269 170.699 338.167 176.866C353.741 187.754 367.162 201.436 377.749 217.217Z" fill="#296243"/>
</g>
</g>
<defs>
<clipPath id="clip0_748_696">
<rect width="500" height="500" fill="white"/>
</clipPath>
<clipPath id="clip1_748_696">
<rect width="410" height="410" fill="white" transform="translate(45 45)"/>
</clipPath>
</defs>
</svg>
