<svg width="500" height="500" viewBox="0 0 500 500" fill="none" xmlns="http://www.w3.org/2000/svg">
<g clip-path="url(#clip0_744_610)">
<path d="M382.812 0H117.188C52.4666 0 0 52.4666 0 117.188V382.812C0 447.533 52.4666 500 117.188 500H382.812C447.533 500 500 447.533 500 382.812V117.188C500 52.4666 447.533 0 382.812 0Z" fill="#F4F2ED"/>
<path d="M97.6391 437L106.339 354.1H125.039C126.172 351.833 127.206 349.567 128.139 347.3C129.139 344.967 130.006 342.6 130.739 340.2L139.239 342.1C138.639 344.1 137.939 346.1 137.139 348.1C136.406 350.033 135.539 352.033 134.539 354.1H158.039C160.372 354.1 162.339 354.833 163.939 356.3C165.539 357.7 166.172 359.7 165.839 362.3L159.639 421C159.172 425.467 158.172 428.867 156.639 431.2C155.106 433.533 153.306 435.133 151.239 436C149.172 436.867 147.106 437.3 145.039 437.3C141.772 437.3 138.906 436.167 136.439 433.9C134.039 431.7 132.472 428.567 131.739 424.5L139.139 422.6C139.672 424.867 140.406 426.467 141.339 427.4C142.272 428.333 143.472 428.8 144.939 428.8C146.472 428.8 147.739 428.1 148.739 426.7C149.806 425.233 150.572 422.333 151.039 418L156.839 362.9H114.339L106.539 437H97.6391ZM147.039 380.7L143.539 412.6H116.939L121.139 373.2H140.239C142.972 373.2 144.839 373.9 145.839 375.3C146.839 376.7 147.239 378.5 147.039 380.7ZM125.839 404.5H136.439L138.939 381.3H128.239L125.839 404.5ZM175.12 421.2L182.72 420C182.853 423.067 183.286 425.233 184.02 426.5C184.82 427.767 185.82 428.433 187.02 428.5C188.153 428.567 189.153 428.033 190.02 426.9C190.953 425.767 191.586 423.567 191.92 420.3L193.62 404.6C188.82 406.4 183.92 407.9 178.92 409.1L177.02 401C183.153 399.6 188.986 397.733 194.52 395.4L196.42 377.6H181.82L182.72 368.6H197.42L198.72 356C194.986 357.133 191.186 358.067 187.32 358.8L185.02 350.9C189.486 349.967 193.953 348.767 198.42 347.3C202.953 345.833 207.186 344.067 211.12 342L215.12 349.4C212.586 350.667 209.953 351.867 207.22 353L205.52 368.6H217.92C218.253 363.4 218.653 358.367 219.12 353.5C219.586 348.633 220.086 344.2 220.62 340.2H228.52C227.986 344.333 227.486 348.833 227.02 353.7C226.62 358.5 226.253 363.467 225.92 368.6H247.02L246.12 377.6H225.42C225.286 381.6 225.186 385.6 225.12 389.6C225.12 393.533 225.153 397.333 225.22 401C227.553 398.267 229.586 395.4 231.32 392.4C233.053 389.333 234.62 386.167 236.02 382.9L243.52 386C241.453 390.733 238.986 395.267 236.12 399.6C233.32 403.933 229.886 408.067 225.82 412C226.62 422.8 228.253 428.2 230.72 428.2C231.986 428.2 233.086 426.567 234.02 423.3C235.02 419.967 235.886 415.7 236.62 410.5L244.02 411.5C243.62 414.833 243.086 418.067 242.42 421.2C241.82 424.333 240.986 427.133 239.92 429.6C238.92 432.067 237.653 434.033 236.12 435.5C234.586 436.967 232.72 437.7 230.52 437.7C226.653 437.7 223.786 435.9 221.92 432.3C220.12 428.767 218.886 424.1 218.22 418.3C215.02 420.633 211.553 422.8 207.82 424.8L204.82 417C207.22 415.733 209.453 414.433 211.52 413.1C213.653 411.7 215.62 410.267 217.42 408.8C217.353 408.333 217.32 407.833 217.32 407.3C217.12 402.767 217.02 397.967 217.02 392.9C217.086 387.833 217.22 382.733 217.42 377.6H204.62L203.12 391.4C205.253 390.333 207.353 389.167 209.42 387.9L213.12 395.2C209.586 397.333 205.92 399.267 202.12 401L200.02 421.3C199.62 425.433 198.753 428.633 197.42 430.9C196.086 433.233 194.486 434.833 192.62 435.7C190.82 436.633 188.886 437.067 186.82 437C183.153 436.867 180.353 435.367 178.42 432.5C176.486 429.633 175.386 425.867 175.12 421.2ZM240.12 364.4C237.053 357.933 233.753 352.267 230.22 347.4L236.82 343.1C238.553 345.367 240.32 348.033 242.12 351.1C243.92 354.167 245.62 357.367 247.22 360.7L240.12 364.4ZM253.2 423.9L260.6 422.7C260.733 424.7 260.967 426.067 261.3 426.8C261.633 427.533 261.967 427.9 262.3 427.9C262.7 427.967 263.033 427.667 263.3 427C263.633 426.267 263.9 424.933 264.1 423L266.7 399.1C264.367 400.1 262 401.033 259.6 401.9L257.4 393.8C259.2 393.133 260.933 392.467 262.6 391.8C264.333 391.067 266.033 390.333 267.7 389.6L270.2 366.9H262.1L263 358.1H271.2L273.1 340.2H281.1L279.2 358.1H286.6L285.7 366.9H278.3L276.4 385.2C277.533 384.6 278.633 383.967 279.7 383.3L282.7 391C280.3 392.467 277.833 393.833 275.3 395.1L272.3 424C271.833 428.867 270.667 432.167 268.8 433.9C267 435.7 265.033 436.6 262.9 436.6C260.3 436.6 258.1 435.633 256.3 433.7C254.5 431.767 253.467 428.5 253.2 423.9ZM325 350.5L322.2 378.7H289.9L293 347.6L293.4 343.7H318.6C321.067 343.7 322.8 344.367 323.8 345.7C324.8 346.967 325.2 348.567 325 350.5ZM299.7 358.1H316.4L317.1 351.2H300.3L299.7 358.1ZM298.4 371.1H315.1L315.7 364.8H299L298.4 371.1ZM292.7 400.5C292.1 405.5 291.067 410.6 289.6 415.8C291.467 419.867 293.833 423.033 296.7 425.3L300.2 392.5H284L284.7 384.1H325.8L325 392.5H308.5L307.3 403.5H320.1L319.4 411.6H306.4L304.5 428.9C305.367 429.1 306.233 429.2 307.1 429.2C309.633 429.267 312.067 429 314.4 428.4C316.8 427.733 319 426.767 321 425.5L324.4 433C322.067 434.467 319.367 435.5 316.3 436.1C313.3 436.7 310.3 437 307.3 437C303.567 437 299.8 436.067 296 434.2C292.267 432.333 289.1 429.333 286.5 425.2C285.767 427.333 284.933 429.367 284 431.3C283.067 433.3 282.067 435.2 281 437L274 432.2C276.867 427.6 279.2 422.367 281 416.5C282.867 410.567 284.2 404.8 285 399.2L292.7 400.5ZM364.68 354.3L357.38 359.7C355.914 357.167 354.314 354.8 352.58 352.6C350.914 350.4 349.114 348.2 347.18 346L354.28 340.7C356.28 342.833 358.114 345.033 359.78 347.3C361.514 349.567 363.147 351.9 364.68 354.3ZM378.38 422.1C379.58 426.433 381.514 428.6 384.18 428.6C385.714 428.6 387.047 427.933 388.18 426.6C389.314 425.267 390.114 422.433 390.58 418.1L397.28 355H369.18L370.18 346.1H398.38C400.914 346.1 402.947 346.733 404.48 348C406.08 349.2 406.747 351.033 406.48 353.5L399.18 420.3C398.714 424.967 397.68 428.533 396.08 431C394.48 433.533 392.58 435.267 390.38 436.2C388.247 437.133 386.047 437.6 383.78 437.6C380.447 437.6 377.547 436.5 375.08 434.3C372.68 432.167 371.014 429 370.08 424.8L378.38 422.1ZM338.48 437L346.38 362.1H354.98L347.08 437H338.48ZM387.18 377.2L383.38 412.9H357.88L362.38 369.5H380.18C382.98 369.5 384.914 370.233 385.98 371.7C387.047 373.1 387.447 374.933 387.18 377.2ZM366.98 404.7H375.98L378.88 377.7H369.78L366.98 404.7Z" fill="black"/>
<path d="M260.625 313.5C239.542 313.5 221.333 310.625 206 304.875C190.667 299.208 178.875 290.458 170.625 278.625C165.708 271.542 161.375 263.208 157.625 253.625C153.875 243.958 150.917 233.583 148.75 222.5C146.667 211.333 145.625 199.958 145.625 188.375C145.625 183.708 145.917 178.083 146.5 171.5C147.083 164.833 147.75 158.083 148.5 151.25C149.333 144.333 150.042 138 150.625 132.25C151.208 126.417 151.5 122 151.5 119C151.5 116.167 151.375 113.25 151.125 110.25C150.958 107.25 150.792 104.375 150.625 101.625C150.458 98.875 150.375 96.4583 150.375 94.375C150.375 85.7083 151.958 78.3333 155.125 72.25C158.375 66.1667 162.708 61.5417 168.125 58.375C173.625 55.125 179.667 53.5 186.25 53.5C194.5 53.5 201.125 55.7917 206.125 60.375C211.208 64.875 213.75 70.4583 213.75 77.125C213.75 78.4583 213.542 80.4583 213.125 83.125C212.792 85.7083 212.083 88.5833 211 91.75L208.125 87.25C212.625 87.25 216.375 88.6667 219.375 91.5C222.375 94.25 223.875 97.8333 223.875 102.25C223.875 106.417 222.292 110.167 219.125 113.5C215.958 116.75 210.875 119.958 203.875 123.125C199.708 125.042 196.958 126.583 195.625 127.75C194.375 128.833 193.75 130.417 193.75 132.5C193.75 135.917 193.75 139.375 193.75 142.875C193.833 146.292 193.917 150.125 194 154.375C194.167 158.625 194.333 163.708 194.5 169.625L190.125 168.25C199.292 152.25 210.417 140.125 223.5 131.875C236.667 123.542 251.708 119.375 268.625 119.375C280.292 119.375 291.167 121.375 301.25 125.375C311.417 129.375 320.292 134.917 327.875 142C335.458 149.083 341.375 157.292 345.625 166.625C349.875 175.958 352 185.958 352 196.625C352 204.708 351.25 212.417 349.75 219.75C348.25 227 346.75 233.208 345.25 238.375C343.75 243.542 343 247.042 343 248.875C343 251.042 343.958 253.208 345.875 255.375C347.792 257.542 349.667 260.042 351.5 262.875C353.417 265.708 354.375 269.292 354.375 273.625C354.375 281.375 350.417 288.25 342.5 294.25C334.583 300.25 323.583 304.958 309.5 308.375C295.5 311.792 279.208 313.5 260.625 313.5ZM273.25 223C261.667 223 251 220.875 241.25 216.625C231.583 212.292 223.833 206.167 218 198.25L225.5 192.625C230.5 199.375 237.167 204.583 245.5 208.25C253.833 211.833 263.125 213.625 273.375 213.625C276.792 213.625 280.25 213.417 283.75 213C287.25 212.583 290.75 211.958 294.25 211.125L296.5 220.125C288.583 222.042 280.833 223 273.25 223ZM260.625 303.5C276.875 303.5 291.292 302.167 303.875 299.5C316.458 296.917 326.333 293.375 333.5 288.875C340.75 284.375 344.375 279.292 344.375 273.625C344.375 270.708 343.417 268.083 341.5 265.75C339.667 263.333 337.792 260.833 335.875 258.25C333.958 255.667 333 252.542 333 248.875C333 246.458 333.75 242.583 335.25 237.25C336.75 231.917 338.25 225.708 339.75 218.625C341.25 211.542 342 204.208 342 196.625C342 183.958 338.75 172.583 332.25 162.5C325.833 152.333 317.083 144.292 306 138.375C294.917 132.375 282.458 129.375 268.625 129.375C257.708 129.375 247.75 131.208 238.75 134.875C229.75 138.458 221.5 144.042 214 151.625C206.5 159.125 199.417 168.792 192.75 180.625H185.125C184.792 172.958 184.5 166.417 184.25 161C184.083 155.583 183.958 150.625 183.875 146.125C183.792 141.542 183.75 136.792 183.75 131.875C183.75 127.792 185 124.542 187.5 122.125C190.083 119.625 194.25 117.083 200 114.5C205.333 112.083 209.042 109.917 211.125 108C213.208 106 214.25 103.958 214.25 101.875C214.25 100.125 213.667 98.75 212.5 97.75C211.333 96.75 209.792 96.25 207.875 96.25C207.292 96.25 206.583 96.375 205.75 96.625C205 96.7917 203.917 97.2083 202.5 97.875L199.875 93.875C201.292 90.375 202.333 87.2083 203 84.375C203.667 81.5417 204 79.125 204 77.125C204 72.9583 202.458 69.6667 199.375 67.25C196.292 64.75 191.917 63.5 186.25 63.5C178.667 63.5 172.458 66.125 167.625 71.375C162.792 76.625 160.375 84.2917 160.375 94.375C160.375 96.5417 160.458 99.0417 160.625 101.875C160.792 104.625 160.958 107.5 161.125 110.5C161.375 113.417 161.5 116.25 161.5 119C161.5 121.833 161.208 126.208 160.625 132.125C160.042 138.042 159.333 144.542 158.5 151.625C157.75 158.708 157.083 165.542 156.5 172.125C155.917 178.708 155.625 184.125 155.625 188.375C155.625 198.958 156.583 209.417 158.5 219.75C160.5 230.083 163.167 239.75 166.5 248.75C169.917 257.667 173.75 265.375 178 271.875C185.333 282.958 196.042 291 210.125 296C224.208 301 241.042 303.5 260.625 303.5ZM237.125 180C234.292 180 231.875 178.75 229.875 176.25C227.875 173.75 226.875 170.833 226.875 167.5C226.875 163.583 228 160.25 230.25 157.5C232.5 154.75 235.167 153.375 238.25 153.375C241.167 153.375 243.583 154.583 245.5 157C247.417 159.417 248.375 162.333 248.375 165.75C248.375 169.583 247.292 172.917 245.125 175.75C242.958 178.583 240.292 180 237.125 180ZM289.625 193.75C286.792 193.75 284.375 192.5 282.375 190C280.375 187.5 279.375 184.583 279.375 181.25C279.375 177.333 280.5 174 282.75 171.25C285 168.5 287.667 167.125 290.75 167.125C293.667 167.125 296.083 168.333 298 170.75C299.917 173.167 300.875 176.083 300.875 179.5C300.875 183.333 299.792 186.667 297.625 189.5C295.458 192.333 292.792 193.75 289.625 193.75Z" fill="black"/>
</g>
<defs>
<clipPath id="clip0_744_610">
<rect width="500" height="500" fill="white"/>
</clipPath>
</defs>
</svg>
