<svg width="500" height="500" viewBox="0 0 500 500" fill="none" xmlns="http://www.w3.org/2000/svg">
<path fill-rule="evenodd" clip-rule="evenodd" d="M294.45 38.2937C282.313 31.543 268.654 28 254.765 28C242.594 28 229.797 30.9618 218.848 36.1771L152.183 73.1873L85.5172 110.198L85.5043 110.205C72.7709 117.303 62.1703 127.681 54.8035 140.261C47.4408 152.834 43.5768 167.148 43.6121 181.718V321.165C43.5811 335.731 47.4475 350.04 54.8105 362.609C62.177 375.183 72.775 385.557 85.5043 392.653L85.5173 392.661L215.064 464.578L215.079 464.586C221.171 467.974 227.973 470.619 234.631 471.713C240.427 472.665 250.277 473.096 258.256 466.617C261.46 464.015 265.015 460.581 267.389 455.316C269.402 450.853 269.983 446.179 270.372 443.051L270.513 441.919V254.698V252.079C277.334 250.551 284.243 248.174 290.229 245.027L290.522 244.873L290.809 244.708L290.812 244.706L291.696 244.196L292.583 243.683L294.257 242.716C296.492 241.425 299.753 239.54 303.855 237.164C312.06 232.413 323.636 225.699 337.125 217.844C364.093 202.14 398.742 181.856 429.381 163.585C432.406 161.782 436.44 159.189 439.762 155.327C443.555 150.917 445.655 145.809 446.356 140.199C446.851 136.244 446.446 131.907 444.488 127.638C442.649 123.626 439.949 120.804 437.706 118.888C434.147 115.848 429.208 113.105 425.109 110.829L425.096 110.822C424.732 110.62 424.374 110.421 424.025 110.227L424.012 110.219L294.465 38.3019L294.45 38.2937ZM234.84 251.82C228.563 250.421 221.383 248.184 215.362 244.777L215.294 244.739L154.544 209.622L109.134 182.343C101.161 177.554 98.5808 167.208 103.37 159.235C108.16 151.262 118.505 148.682 126.478 153.471L171.645 180.604L232.003 215.494C234.004 216.614 237.591 217.926 242.169 218.946C246.673 219.95 250.926 220.405 253.672 220.405C259.434 220.405 268.214 218.471 274.297 215.35L274.857 215.027L275.246 214.802C275.796 214.484 276.52 214.066 277.406 213.554C279.633 212.267 282.885 210.387 286.977 208.017C295.164 203.277 306.716 196.577 320.176 188.738C345.207 174.163 376.805 155.67 405.623 138.533L278.088 67.733C270.955 63.764 262.927 61.6808 254.765 61.6808C246.602 61.6808 238.574 63.764 231.441 67.733L227.623 69.8579H227.57L101.904 139.623L101.893 139.629C94.4173 143.799 88.1934 149.894 83.8676 157.281C79.5397 164.672 77.2695 173.086 77.2928 181.65L77.2929 181.673V321.204L77.2928 321.224C77.2724 329.785 79.544 338.197 83.8717 345.584C88.1964 352.966 94.4169 359.057 101.888 363.226L101.904 363.235L231.441 435.147C233.409 436.242 235.247 437.047 236.832 437.603V254.086V252.243C236.165 252.108 235.501 251.967 234.84 251.82Z" fill="#AAE116"/>
<path d="M215.362 244.777C221.383 248.184 228.563 250.421 234.84 251.82C235.501 251.967 236.165 252.108 236.832 252.243V254.086V437.603C235.247 437.047 233.409 436.242 231.441 435.147L101.904 363.235L101.888 363.226C94.4169 359.057 88.1964 352.966 83.8717 345.584C79.544 338.197 77.2724 329.785 77.2928 321.224L77.2929 321.204V181.673L77.2928 181.65C77.2695 173.086 79.5397 164.672 83.8676 157.281C88.1934 149.894 94.4173 143.799 101.893 139.629L101.904 139.623L227.57 69.8579H227.623L231.441 67.733C238.574 63.764 246.602 61.6808 254.765 61.6808C262.927 61.6808 270.955 63.764 278.088 67.733L405.623 138.533C376.805 155.67 345.207 174.163 320.176 188.738C306.716 196.577 295.164 203.277 286.977 208.017C282.885 210.387 279.633 212.267 277.406 213.554C276.52 214.066 275.796 214.484 275.246 214.802L274.857 215.027L274.297 215.35C268.214 218.471 259.434 220.405 253.672 220.405C250.926 220.405 246.673 219.95 242.169 218.946C237.591 217.926 234.004 216.614 232.003 215.494L171.645 180.604L126.478 153.471C118.505 148.682 108.16 151.262 103.37 159.235C98.5808 167.208 101.161 177.554 109.134 182.343L154.544 209.622L215.294 244.739L215.362 244.777Z" fill="#AAE116"/>
<path d="M429.646 251.442V209.36M304.453 431.89L336.84 413.916M117.806 167.908L163.095 195.114L223.656 230.122C231.667 234.656 245.235 237.247 253.672 237.247C262.11 237.247 273.768 234.656 282.394 230.122C282.394 230.122 359.624 185.577 420.756 149.123C426.187 145.884 428.998 143.293 429.646 138.112C430.293 132.93 425.929 130.57 415.825 124.937L286.276 53.0189C276.639 47.6563 265.793 44.8418 254.765 44.8418C243.736 44.8418 232.89 47.6563 223.253 53.0189H223.209L93.704 124.915C83.597 130.55 75.1828 138.787 69.3355 148.772C63.4881 158.758 60.4209 170.126 60.4524 181.698V321.185C60.4248 332.752 63.4938 344.117 69.341 354.098C75.1881 364.079 83.6002 372.313 93.704 377.945L158.478 413.904L190.866 431.884L223.253 449.864C232.89 455.226 243.106 457.228 247.64 453.546C252.174 449.864 252.821 447.716 253.672 440.877V303.313" stroke="#FFFAEF" stroke-width="40" stroke-linecap="round"/>
<path d="M74.2148 117.134C95.3202 117.134 112.43 100.315 112.43 79.5671C112.43 58.8193 95.3202 42 74.2148 42C53.1093 42 36 58.8193 36 79.5671C36 100.315 53.1093 117.134 74.2148 117.134Z" stroke="#FFFAEF" stroke-opacity="0.8" stroke-width="40" stroke-linecap="round" stroke-linejoin="round"/>
<path d="M399.4 418.883L470 370.952M470 370.952V292.58M470 370.952L348.878 301.648" stroke="#FFFAEF" stroke-width="40" stroke-linecap="round" stroke-linejoin="round"/>
</svg>
